<svg width="364" height="232" viewBox="0 0 364 232" fill="none" xmlns="http://www.w3.org/2000/svg">
<g clip-path="url(#clip0_19_220)">
<g clip-path="url(#clip1_19_220)">
<path d="M97.1116 57.1625L86.4344 37.5376C86.0998 36.9664 85.9631 36.2896 86.0101 35.6877L86.7862 25.7438L88.0424 25.8418C88.9217 25.9105 89.7271 25.3072 89.7975 24.4043C89.8633 23.5616 89.1665 22.7745 88.2871 22.7058L70.4931 21.3171C69.6138 21.2484 68.8083 21.8517 68.7374 22.7606C68.6716 23.6033 69.369 24.3844 70.2484 24.4531L71.5046 24.5511L70.7332 34.4348C70.6815 35.0969 70.4461 35.6841 70.0269 36.1965L56.4924 53.9923C55.0133 55.9419 54.7578 58.4049 55.7867 60.6048C56.878 62.8156 58.984 64.2517 61.4964 64.4478L90.4832 66.7101C93.0018 66.9067 95.3616 65.8191 96.7199 63.7995C98.1359 61.851 98.2656 59.3782 97.1116 57.1625ZM69.8799 55.1643C68.5609 55.0613 67.5729 53.9547 67.6721 52.6846C67.7707 51.4206 68.9184 50.4807 70.2374 50.5836C71.5564 50.6866 72.5443 51.7932 72.4457 53.0572C72.3466 54.3273 71.1989 55.2672 69.8799 55.1643ZM80.15 61.3011C78.6237 61.182 77.4789 59.8996 77.5935 58.4309C77.7076 56.9682 79.0376 55.879 80.5638 55.9981C82.0964 56.1177 83.2412 57.4001 83.127 58.8628C83.0124 60.3315 81.6825 61.4207 80.15 61.3011ZM78.7868 48.4046C78.8676 47.3693 79.806 46.6007 80.88 46.6846C81.9604 46.7689 82.7681 47.6737 82.6872 48.709C82.6069 49.7383 81.6686 50.5069 80.5882 50.4225C79.5142 50.3387 78.7064 49.4339 78.7868 48.4046ZM80.1576 44.1997C76.4327 42.4556 72.7363 42.046 69.2725 42.6235L72.7281 38.1029C73.4989 37.1336 73.9069 35.9542 74.0055 34.6902L74.7769 24.8065L83.5766 25.4933L82.8052 35.377C82.7112 36.5808 83.0004 37.8146 83.5439 38.9471L87.3559 45.9727C84.9644 45.8467 82.5431 45.2943 80.1576 44.1997Z" fill="#FFA3A3"/>
</g>
<g clip-path="url(#clip2_19_220)">
<path d="M12.46 101.43L13.955 118.336L36.5335 116.34L34.5785 94.2315L17.3124 95.7583C14.3784 96.0177 12.2059 98.5569 12.46 101.43ZM20.1674 105.336L22.8238 105.101L22.5937 102.5C22.5302 101.782 23.0734 101.147 23.8069 101.082C24.5405 101.017 25.1866 101.547 25.2501 102.265L25.4801 104.866L28.1365 104.631C28.8697 104.566 29.5162 105.096 29.5797 105.814C29.6432 106.532 29.1001 107.167 28.3665 107.232L25.7101 107.467L25.9401 110.068C26.0036 110.786 25.4605 111.421 24.727 111.486C23.9934 111.551 23.3473 111.021 23.2838 110.303L23.0538 107.702L20.3974 107.937C19.6638 108.002 19.0177 107.472 18.9542 106.754C18.8907 106.035 19.4338 105.401 20.1674 105.336Z" fill="#FFDA6E"/>
<path d="M54.501 92.4694L37.2349 93.9962L39.1898 116.104L61.7684 114.108L60.2734 97.2014C60.0193 94.3285 57.435 92.21 54.501 92.4694ZM53.601 105L45.6322 105.705C44.8987 105.77 44.2526 105.24 44.189 104.522C44.1255 103.803 44.6686 103.168 45.4022 103.104L53.371 102.399C54.1046 102.334 54.7507 102.864 54.8142 103.582C54.8777 104.301 54.3346 104.935 53.601 105Z" fill="#FFDA6E"/>
<path d="M15.6801 137.843C15.9341 140.716 18.5185 142.835 21.4524 142.575L38.7186 141.049L36.7636 118.94L14.1851 120.937L15.6801 137.843ZM22.5332 129.486C21.9778 129.014 21.9197 128.19 22.403 127.644C22.8747 127.112 23.6907 127.04 24.2485 127.481L26.2894 129.154L28.0047 127.149C28.4884 126.603 29.3305 126.543 29.8858 127.015C30.4272 127.475 30.4979 128.274 30.0456 128.822L28.3299 130.827L30.3708 132.5C30.9424 132.952 31.0298 133.774 30.5659 134.336C30.102 134.898 29.2624 134.986 28.6908 134.534C28.6786 134.524 28.6671 134.515 28.6551 134.505L26.6146 132.832L24.8989 134.837C24.4156 135.383 23.5735 135.443 23.0182 134.971C22.4764 134.511 22.4058 133.712 22.8584 133.164L24.5737 131.159L22.5332 129.486Z" fill="#FFDA6E"/>
<path d="M41.3749 140.814L58.641 139.287C61.575 139.028 63.7475 136.488 63.4934 133.615L61.9984 116.709L39.4199 118.706L41.3749 140.814ZM47.3573 125.212L55.3261 124.508C56.0597 124.443 56.7057 124.972 56.7693 125.691C56.8328 126.409 56.2897 127.044 55.5561 127.109L47.5873 127.813C46.8537 127.878 46.2076 127.349 46.1441 126.63C46.0806 125.912 46.6237 125.277 47.3573 125.212ZM47.8173 130.414L55.786 129.709C56.5196 129.645 57.1657 130.174 57.2292 130.892C57.2928 131.611 56.7496 132.246 56.0161 132.31L48.0473 133.015C47.3137 133.08 46.6676 132.55 46.6041 131.832C46.5406 131.114 47.0837 130.479 47.8173 130.414Z" fill="#FFDA6E"/>
</g>
<g clip-path="url(#clip3_19_220)">
<path d="M76.0548 175.401C64.9044 174.399 54.9636 182.923 53.9975 194.318C53.6752 198.119 54.38 201.764 55.8749 204.971C56.0282 205.3 56.0328 205.681 55.8866 206.014L53.2101 212.118C52.824 212.998 53.5191 213.97 54.4569 213.861L61.9684 212.989C62.2554 212.956 62.545 213.027 62.7835 213.192C65.5694 215.124 68.868 216.371 72.4683 216.674C83.6141 217.612 93.4581 209.113 94.413 197.727C95.3657 186.368 87.1553 176.398 76.0548 175.401ZM62.9859 197.545C62.9074 198.481 62.101 199.177 61.1849 199.1C60.2688 199.024 59.5896 198.203 59.6681 197.267L60.0769 192.394C60.1554 191.458 60.9617 190.762 61.8779 190.839C62.794 190.916 63.4731 191.736 63.3946 192.672L62.9859 197.545ZM69.0238 201.636C68.9453 202.572 68.1389 203.268 67.2228 203.192C66.3067 203.115 65.6276 202.294 65.7061 201.358L66.712 189.366C66.7905 188.43 67.5968 187.734 68.513 187.811C69.4291 187.887 70.1082 188.708 70.0297 189.644L69.0238 201.636ZM75.6589 198.608C75.5804 199.544 74.774 200.24 73.8579 200.163C72.9418 200.087 72.2627 199.266 72.3412 198.33L72.7499 193.457C72.8284 192.521 73.6348 191.825 74.5509 191.902C75.467 191.979 76.1461 192.799 76.0676 193.735L75.6589 198.608ZM81.8378 201.017C81.7593 201.953 80.953 202.65 80.0368 202.573C79.1207 202.496 78.4416 201.675 78.5201 200.739L79.2438 192.11C79.3223 191.175 80.1287 190.478 81.0448 190.555C81.9609 190.632 82.6401 191.453 82.5616 192.389L81.8378 201.017ZM88.4449 198.321C88.3664 199.257 87.5601 199.954 86.6439 199.877C85.7278 199.8 85.0487 198.979 85.1272 198.043L85.3095 195.869C85.388 194.934 86.1944 194.237 87.1105 194.314C88.0266 194.391 88.7058 195.212 88.6273 196.148L88.4449 198.321Z" fill="#BDE7FF"/>
<path d="M105.866 201.604C105.777 201.251 105.845 200.876 106.051 200.578C108.056 197.67 109.357 194.2 109.675 190.405C110.632 179.005 102.359 169.004 91.1982 168.068C86.0431 167.636 81.1999 169.19 77.3681 172.126C90.2653 173.85 98.8149 185.729 97.7306 198.006C97.415 201.836 96.1962 205.552 94.1697 208.841C95.4581 208.517 96.7108 208.074 97.8697 207.532C98.1324 207.409 98.4291 207.388 98.7063 207.468L105.968 209.58C106.875 209.843 107.722 209 107.488 208.068L105.866 201.604Z" fill="#BDE7FF"/>
</g>
<g clip-path="url(#clip4_19_220)">
<path d="M326.948 19.3104L287.905 22.4148C285.758 22.5855 284.137 24.4454 284.304 26.5467L286.734 57.1167C286.902 59.2174 288.796 60.7984 290.943 60.6277L308.512 59.2307L308.816 63.0516L302.96 63.5173C300.803 63.6887 299.191 65.537 299.359 67.6492L322.785 65.7825C322.617 63.6744 320.733 62.1006 318.576 62.2721L312.72 62.7378L312.416 58.9203L329.986 57.5234C332.133 57.3527 333.754 55.4922 333.587 53.3915L331.156 22.8215C330.989 20.7201 329.095 19.1397 326.948 19.3104ZM301.793 45.2281L299.884 47.4189L294.007 42.5161C293.185 41.8299 293.089 40.6211 293.792 39.8141L298.82 34.0441L301.052 35.9057L296.66 40.945L301.793 45.2281ZM309.177 48.6026L306.175 48.8413L308.714 31.335L311.716 31.0962L309.177 48.6026ZM324.098 40.1236L319.07 45.8935L316.839 44.0319L321.231 38.992L316.097 34.71L318.007 32.5192L323.884 37.422C324.705 38.1038 324.801 39.3167 324.098 40.1236Z" fill="#8ABCF1"/>
</g>
<path d="M216.5 96.5C217.561 96.5 218.578 96.0786 219.328 95.3284C220.079 94.5783 220.5 93.5609 220.5 92.5C220.5 91.4391 220.079 90.4217 219.328 89.6716C218.578 88.9214 217.561 88.5 216.5 88.5C216.031 88.5 215.561 88.5 215.092 88.5C212.895 88.5 210.697 88.5 208.5 88.5H206.884L205.722 89.6224C201.336 93.857 196.95 98.0916 192.564 102.326C192.454 102.432 192.393 102.589 192.381 102.796C192.344 103.433 192.768 104.548 193.653 106.14C193.717 106.255 193.771 106.356 193.809 106.429C193.847 106.503 193.873 106.549 193.91 106.587C193.947 106.625 193.992 106.653 194.064 106.694C194.136 106.734 194.235 106.791 194.347 106.86C194.347 106.86 194.347 106.86 194.347 106.86C195.907 107.8 197.007 108.263 197.644 108.248C197.852 108.243 198.011 108.187 198.121 108.081C202.507 103.847 206.893 99.6122 211.278 95.3776L208.5 96.5C210.697 96.5 212.895 96.5 215.092 96.5C215.561 96.5 216.031 96.5 216.5 96.5Z" fill="#20CF72"/>
<path d="M167 73.5C167 72.4391 166.579 71.4217 165.828 70.6716C165.078 69.9214 164.061 69.5 163 69.5C161.939 69.5 160.922 69.9214 160.172 70.6716C159.421 71.4217 159 72.4391 159 73.5C159 74.239 159 74.978 159 75.717C159 84.8114 159 93.9057 159 103V105.189L160.844 106.369C164.388 108.637 167.932 110.906 171.476 113.174C171.939 113.47 172.402 113.767 172.865 114.063C173.025 114.165 173.813 113.284 175.23 111.421C175.312 111.314 175.381 111.225 175.429 111.165C175.477 111.102 175.507 111.064 175.534 111.022C175.561 110.98 175.583 110.936 175.619 110.866C175.655 110.797 175.706 110.698 175.77 110.579C175.77 110.579 175.77 110.579 175.77 110.579C176.868 108.511 177.337 107.427 177.178 107.325C176.715 107.028 176.252 106.732 175.789 106.436C172.245 104.168 168.7 101.899 165.156 99.6309L167 103C167 93.9057 167 84.8114 167 75.717C167 74.978 167 74.239 167 73.5Z" fill="#20CF72"/>
<path d="M179 105C179.131 105.023 179.242 105.045 179.32 105.061C179.399 105.077 179.449 105.086 179.5 105.086C179.551 105.086 179.601 105.077 179.68 105.061C179.758 105.045 179.869 105.023 180 105C180 105 180 105 180 105C182.333 104.584 183.5 104.168 183.5 103.752C183.5 103.751 183.5 103.751 183.5 103.75C183.5 96.25 183.5 88.75 183.5 81.25C183.5 80.8333 183.5 80.4167 183.5 80C183.5 78.9391 183.079 77.9217 182.328 77.1716C181.578 76.4214 180.561 76 179.5 76C178.439 76 177.422 76.4214 176.672 77.1716C175.921 77.9217 175.5 78.9391 175.5 80C175.5 80.4167 175.5 80.8333 175.5 81.25C175.5 88.75 175.5 96.25 175.5 103.75C175.5 103.751 175.5 103.751 175.5 103.752C175.5 104.168 176.667 104.584 179 105Z" fill="#20CF72"/>
<path d="M197.5 79C197.5 77.9391 197.079 76.9217 196.328 76.1716C195.578 75.4214 194.561 75 193.5 75C192.439 75 191.422 75.4214 190.672 76.1716C189.921 76.9217 189.5 77.9391 189.5 79C189.5 79.2953 189.5 79.5905 189.5 79.8858C189.5 80.7572 189.5 81.6286 189.5 82.5L191.044 79.3426C189.544 80.5093 188.044 81.6759 186.544 82.8426L189.235 82.0069C186.696 81.8576 184.158 81.7082 181.619 81.5589C181.324 81.5416 181.03 81.5242 180.735 81.5069C179.676 81.4446 178.635 81.8056 177.843 82.5104C177.05 83.2152 176.569 84.2061 176.507 85.2651C176.445 86.3241 176.806 87.3646 177.51 88.1575C178.215 88.9504 179.206 89.4308 180.265 89.4931C180.265 89.4931 180.265 89.4931 180.265 89.4931C180.56 89.5104 180.855 89.5278 181.149 89.5451C183.688 89.6944 186.227 89.8438 188.765 89.9931L190.268 90.0815L191.456 89.1574C192.956 87.9907 194.456 86.8241 195.956 85.6574L197.5 84.4563V82.5C197.5 81.6286 197.5 80.7572 197.5 79.8858C197.5 79.5905 197.5 79.2953 197.5 79Z" fill="#20CF72"/>
<path d="M197.275 119.119C196.51 118.383 195.485 117.981 194.425 118.001C193.364 118.021 192.355 118.461 191.619 119.225C190.883 119.99 190.481 121.015 190.501 122.075C190.521 123.136 190.961 124.145 191.725 124.881C191.725 124.881 191.725 124.881 191.725 124.881C192.185 125.323 192.644 125.765 193.103 126.208C197.144 130.099 201.185 133.99 205.225 137.881L204 135C204 140.863 204 146.725 204 152.588C204 153.225 204 153.863 204 154.5C204 155.561 204.421 156.578 205.172 157.328C205.922 158.079 206.939 158.5 208 158.5C209.061 158.5 210.078 158.079 210.828 157.328C211.579 156.578 212 155.561 212 154.5C212 153.863 212 153.225 212 152.588C212 146.725 212 140.863 212 135V133.299L210.775 132.119C206.734 128.227 202.693 124.336 198.652 120.445C198.193 120.003 197.734 119.561 197.275 119.119Z" fill="#20CF72"/>
<path d="M226.682 112.996C227.741 112.948 228.739 112.481 229.454 111.697C230.169 110.914 230.544 109.878 230.496 108.818C230.448 107.759 229.981 106.761 229.197 106.046C228.414 105.331 227.378 104.956 226.318 105.004C226.318 105.004 226.318 105.004 226.318 105.004C225.706 105.032 225.093 105.06 224.48 105.088C221.426 105.226 218.372 105.365 215.318 105.504L211.719 105.668L211.507 109.265C211.34 112.098 211.174 114.932 211.007 117.765L210.901 119.558L212.172 120.828C214.005 122.662 215.838 124.495 217.672 126.328L218.843 127.5H220.5C223.053 127.5 225.607 127.5 228.16 127.5C228.773 127.5 229.387 127.5 230 127.5C231.061 127.5 232.078 127.079 232.828 126.328C233.579 125.578 234 124.561 234 123.5C234 122.439 233.579 121.422 232.828 120.672C232.078 119.921 231.061 119.5 230 119.5C229.387 119.5 228.773 119.5 228.16 119.5C225.607 119.5 223.053 119.5 220.5 119.5L223.328 120.672C221.495 118.838 219.662 117.005 217.828 115.172L218.993 118.235C219.16 115.402 219.326 112.568 219.493 109.735L215.682 113.496C218.736 113.357 221.789 113.218 224.843 113.079C225.456 113.052 226.069 113.024 226.682 112.996Z" fill="#20CF72"/>
<path d="M175.5 151.5C175.5 152.561 175.921 153.578 176.672 154.328C177.422 155.079 178.439 155.5 179.5 155.5C180.561 155.5 181.578 155.079 182.328 154.328C183.079 153.578 183.5 152.561 183.5 151.5C183.5 151.336 183.5 151.172 183.5 151.008C183.5 150.786 183.5 150.565 183.5 150.343C183.5 148.729 183.5 147.114 183.5 145.5L182.328 148.328C184.162 146.495 185.995 144.662 187.828 142.828L185 144C186 144 187 144 188 144L185.172 142.828C186.399 144.056 187.626 145.283 188.853 146.51C189.126 146.783 189.399 147.056 189.672 147.328C190.422 148.079 191.439 148.5 192.5 148.5C193.561 148.5 194.578 148.079 195.328 147.328C196.079 146.578 196.5 145.561 196.5 144.5C196.5 143.439 196.079 142.422 195.328 141.672C195.328 141.672 195.328 141.672 195.328 141.672C195.056 141.399 194.783 141.126 194.51 140.853C193.283 139.626 192.056 138.399 190.828 137.172L189.657 136H188C187 136 186 136 185 136H183.343L182.172 137.172C180.338 139.005 178.505 140.838 176.672 142.672L175.5 143.843V145.5C175.5 147.114 175.5 148.729 175.5 150.343C175.5 150.565 175.5 150.786 175.5 151.008C175.5 151.172 175.5 151.336 175.5 151.5Z" fill="#20CF72"/>
<path d="M143 120C141.939 120 140.922 120.421 140.172 121.172C139.421 121.922 139 122.939 139 124C139 125.061 139.421 126.078 140.172 126.828C140.922 127.579 141.939 128 143 128C143.74 128 144.479 128 145.219 128C147.479 128 149.74 128 152 128H153.556L154.703 126.949C156.703 125.115 158.703 123.282 160.703 121.449L162.33 119.957L161.935 117.784C161.602 115.951 161.269 114.118 160.935 112.284L160.641 110.666L159.294 109.723C157.627 108.556 155.961 107.39 154.294 106.223L152.566 105.54C151.399 105.374 150.232 105.207 149.066 105.04L152.497 108.833C152.361 105.572 152.225 102.311 152.089 99.0505C152.058 98.3115 152.027 97.5725 151.997 96.8335C151.952 95.7735 151.489 94.7745 150.708 94.0563C149.928 93.338 148.893 92.9593 147.833 93.0035C146.774 93.0476 145.775 93.511 145.056 94.2918C144.338 95.0725 143.959 96.1066 144.003 97.1665C144.003 97.1665 144.003 97.1665 144.003 97.1665C144.034 97.9055 144.065 98.6445 144.096 99.3835C144.232 102.645 144.368 105.906 144.503 109.167L144.642 112.489L147.934 112.96C149.101 113.126 150.268 113.293 151.434 113.46L149.706 112.777C151.373 113.944 153.039 115.11 154.706 116.277L153.065 113.716C153.398 115.549 153.731 117.382 154.065 119.216L155.297 115.551C153.297 117.385 151.297 119.218 149.297 121.051L152 120C149.74 120 147.479 120 145.219 120C144.479 120 143.74 120 143 120Z" fill="#20CF72"/>
<circle cx="210.5" cy="74.5" r="5" fill="#20CF72" stroke="#20CF72"/>
<path d="M187 99C195.284 99 202 105.716 202 114C202 122.284 195.284 129 187 129C178.716 129 172 122.284 172 114C172 105.716 178.716 99 187 99ZM186.5 106C182.358 106 179 109.358 179 113.5C179 117.642 182.358 121 186.5 121C190.642 121 194 117.642 194 113.5C194 109.358 190.642 106 186.5 106Z" fill="#20CF72"/>
<path d="M155.207 139.637C154.447 140.378 154.013 141.39 154 142.451C153.987 143.511 154.396 144.534 155.137 145.293C155.878 146.053 156.89 146.487 157.951 146.5C159.011 146.513 160.034 146.104 160.793 145.363C160.793 145.363 160.793 145.363 160.793 145.363C161.135 145.03 161.477 144.696 161.818 144.363C167.968 138.363 174.118 132.363 180.268 126.363C180.592 126.047 180.915 125.732 181.239 125.416C181.257 125.398 180.46 124.546 178.849 122.858C178.756 122.76 178.679 122.679 178.626 122.624C178.572 122.567 178.539 122.532 178.504 122.496C178.469 122.461 178.435 122.427 178.38 122.371C178.325 122.317 178.246 122.238 178.151 122.142C178.151 122.142 178.151 122.142 178.151 122.142C176.503 120.49 175.67 119.672 175.652 119.69C175.329 120.006 175.005 120.321 174.682 120.637C168.532 126.637 162.382 132.637 156.232 138.637C155.89 138.97 155.548 139.304 155.207 139.637Z" fill="#20CF72"/>
<g clip-path="url(#clip5_19_220)">
<path d="M267.93 184.007C267.664 182.901 266.919 181.929 265.814 181.426C263.893 180.55 261.614 181.423 260.725 183.375C259.835 185.328 260.672 187.62 262.593 188.496C263.698 188.999 264.92 188.923 265.929 188.398L270.636 190.542L272.636 186.151L267.93 184.007Z" fill="#DEAAFF"/>
<path d="M273.265 172.296C272.999 171.19 272.254 170.218 271.15 169.715C269.228 168.84 266.95 169.713 266.06 171.665C265.171 173.617 266.007 175.91 267.929 176.785C269.033 177.288 270.255 177.213 271.264 176.688L275.971 178.832L277.972 174.441L273.265 172.296Z" fill="#DEAAFF"/>
<path d="M278.601 160.586C278.335 159.48 277.59 158.508 276.486 158.005C274.564 157.129 272.285 158.002 271.396 159.955C270.506 161.907 271.343 164.199 273.264 165.075C274.369 165.578 275.591 165.502 276.6 164.977L281.307 167.122L283.307 162.73L278.601 160.586Z" fill="#DEAAFF"/>
<path d="M309.94 208.45C310.206 209.556 310.951 210.528 312.055 211.031C313.977 211.907 316.255 211.034 317.145 209.081C318.034 207.129 317.198 204.837 315.277 203.961C314.172 203.458 312.95 203.534 311.941 204.059L307.234 201.914L305.233 206.306L309.94 208.45Z" fill="#DEAAFF"/>
<path d="M315.276 196.74C315.541 197.846 316.286 198.818 317.391 199.321C319.312 200.196 321.591 199.323 322.48 197.371C323.37 195.419 322.533 193.126 320.612 192.251C319.508 191.748 318.285 191.823 317.276 192.348L312.57 190.204L310.569 194.595L315.276 196.74Z" fill="#DEAAFF"/>
<path d="M320.611 185.029C320.877 186.135 321.622 187.107 322.726 187.611C324.648 188.486 326.926 187.613 327.816 185.66C328.705 183.708 327.869 181.416 325.947 180.54C324.843 180.037 323.621 180.113 322.612 180.638L317.905 178.494L315.904 182.885L320.611 185.029Z" fill="#DEAAFF"/>
<path d="M316.351 166.139L293.65 155.796C292.456 155.252 291.041 155.794 290.488 157.007L271.029 199.717C270.476 200.93 270.996 202.353 272.189 202.897L294.891 213.24C296.084 213.784 297.5 213.242 298.052 212.029L317.512 169.319C318.064 168.106 317.545 166.683 316.351 166.139ZM309.25 171.877C308.335 171.46 307.936 170.369 308.36 169.439C308.784 168.509 309.869 168.093 310.784 168.51C311.699 168.927 312.097 170.019 311.673 170.948C311.25 171.878 310.165 172.294 309.25 171.877Z" fill="#DEAAFF"/>
</g>
<path d="M185 57.209L184.377 56.4264L184 56.7267V57.209H185ZM191.25 52.2373L191.873 53.0199L192.25 52.7196V52.2373H191.25ZM191.25 34.2147L190.671 33.3994L190.25 33.6984V34.2147H191.25ZM194.667 28C194.667 30.9455 197.054 33.3333 200 33.3333C202.946 33.3333 205.333 30.9455 205.333 28C205.333 25.0545 202.946 22.6667 200 22.6667C197.054 22.6667 194.667 25.0545 194.667 28ZM185 83H186V57.209H185H184V83H185ZM185 57.209L185.623 57.9916L191.873 53.0199L191.25 52.2373L190.627 51.4547L184.377 56.4264L185 57.209ZM191.25 52.2373H192.25V34.2147H191.25H190.25V52.2373H191.25ZM191.25 34.2147L191.829 35.03L200.579 28.8153L200 28L199.421 27.1847L190.671 33.3994L191.25 34.2147Z" fill="#20CF72" fill-opacity="0.7"/>
<path d="M182 39.093H181V39.5861L181.391 39.8863L182 39.093ZM176.667 19C176.667 21.9455 179.054 24.3333 182 24.3333C184.946 24.3333 187.333 21.9455 187.333 19C187.333 16.0545 184.946 13.6667 182 13.6667C179.054 13.6667 176.667 16.0545 176.667 19ZM191 46L191.609 45.2067L182.609 38.2997L182 39.093L181.391 39.8863L190.391 46.7933L191 46ZM182 39.093H183V19H182H181V39.093H182Z" fill="#20CF72" fill-opacity="0.7"/>
<path d="M170 44.8481H169V45.3249L169.371 45.6251L170 44.8481ZM164.667 33C164.667 35.9455 167.054 38.3333 170 38.3333C172.946 38.3333 175.333 35.9455 175.333 33C175.333 30.0545 172.946 27.6667 170 27.6667C167.054 27.6667 164.667 30.0545 164.667 33ZM185 57L185.629 56.223L170.629 44.0711L170 44.8481L169.371 45.6251L184.371 57.777L185 57ZM170 44.8481H171V33H170H169V44.8481H170Z" fill="#20CF72" fill-opacity="0.7"/>
<path d="M200 53.7857L200.631 54.5611L201 54.261V53.7857H200ZM194.667 39C194.667 41.9455 197.054 44.3333 200 44.3333C202.946 44.3333 205.333 41.9455 205.333 39C205.333 36.0545 202.946 33.6667 200 33.6667C197.054 33.6667 194.667 36.0545 194.667 39ZM185 66L185.631 66.7754L200.631 54.5611L200 53.7857L199.369 53.0103L184.369 65.2246L185 66ZM200 53.7857H201V39H200H199V53.7857H200Z" fill="#20CF72" fill-opacity="0.7"/>
<path d="M181 69.6552H182V69.1847L181.638 68.8848L181 69.6552ZM160 52.2759H159V52.7463L159.362 53.0463L160 52.2759ZM154.667 20C154.667 22.9455 157.054 25.3333 160 25.3333C162.946 25.3333 165.333 22.9455 165.333 20C165.333 17.0545 162.946 14.6667 160 14.6667C157.054 14.6667 154.667 17.0545 154.667 20ZM181 83H182V69.6552H181H180V83H181ZM181 69.6552L181.638 68.8848L160.638 51.5055L160 52.2759L159.362 53.0463L180.362 70.4256L181 69.6552ZM160 52.2759H161V20H160H159V52.2759H160Z" fill="#20CF72" fill-opacity="0.7"/>
<path d="M171 76.3333H170V77.0318L170.656 77.2722L171 76.3333ZM165.667 69C165.667 71.9455 168.054 74.3333 171 74.3333C173.946 74.3333 176.333 71.9455 176.333 69C176.333 66.0545 173.946 63.6667 171 63.6667C168.054 63.6667 165.667 66.0545 165.667 69ZM181 80L181.344 79.0611L171.344 75.3945L171 76.3333L170.656 77.2722L180.656 80.9389L181 80ZM171 76.3333H172V69H171H170V76.3333H171Z" fill="#20CF72" fill-opacity="0.7"/>
<path d="M191 68.7698L190.373 67.9906L190 68.2908V68.7698H191ZM216 48.6619L216.627 49.4411L217 49.1409V48.6619H216ZM210.667 40C210.667 42.9455 213.054 45.3333 216 45.3333C218.946 45.3333 221.333 42.9455 221.333 40C221.333 37.0545 218.946 34.6667 216 34.6667C213.054 34.6667 210.667 37.0545 210.667 40ZM191 83H192V68.7698H191H190V83H191ZM191 68.7698L191.627 69.549L216.627 49.4411L216 48.6619L215.373 47.8826L190.373 67.9906L191 68.7698ZM216 48.6619H217V40H216H215V48.6619H216Z" fill="#20CF72" fill-opacity="0.7"/>
<path d="M210 30.7872L209.353 30.0247L209 30.3242V30.7872H210ZM212.667 24C212.667 26.9455 215.054 29.3333 218 29.3333C220.946 29.3333 223.333 26.9455 223.333 24C223.333 21.0545 220.946 18.6667 218 18.6667C215.054 18.6667 212.667 21.0545 212.667 24ZM210 53H211V30.7872H210H209V53H210ZM210 30.7872L210.647 31.5498L218.647 24.7625L218 24L217.353 23.2375L209.353 30.0247L210 30.7872Z" fill="#20CF72" fill-opacity="0.7"/>
<path d="M163 76.7698L163.627 75.9906L164 76.2908V76.7698H163ZM138 56.6619L137.373 57.4411L137 57.1409V56.6619H138ZM143.333 48C143.333 50.9455 140.946 53.3333 138 53.3333C135.054 53.3333 132.667 50.9455 132.667 48C132.667 45.0545 135.054 42.6667 138 42.6667C140.946 42.6667 143.333 45.0545 143.333 48ZM163 91H162V76.7698H163H164V91H163ZM163 76.7698L162.373 77.549L137.373 57.4411L138 56.6619L138.627 55.8826L163.627 75.9906L163 76.7698ZM138 56.6619H137V48H138H139V56.6619H138Z" fill="#20CF72" fill-opacity="0.7"/>
<path d="M144 38.7872L144.647 38.0247L145 38.3242V38.7872H144ZM141.333 32C141.333 34.9455 138.946 37.3333 136 37.3333C133.054 37.3333 130.667 34.9455 130.667 32C130.667 29.0545 133.054 26.6667 136 26.6667C138.946 26.6667 141.333 29.0545 141.333 32ZM144 61H143V38.7872H144H145V61H144ZM144 38.7872L143.353 39.5498L135.353 32.7625L136 32L136.647 31.2375L144.647 38.0247L144 38.7872Z" fill="#20CF72" fill-opacity="0.7"/>
<path d="M122.209 117L121.426 117.623L121.727 118H122.209V117ZM117.237 110.75L118.02 110.127L117.72 109.75H117.237V110.75ZM99.2147 110.75L98.3994 111.329L98.6984 111.75H99.2147V110.75ZM93 107.333C95.9455 107.333 98.3333 104.946 98.3333 102C98.3333 99.0545 95.9455 96.6667 93 96.6667C90.0545 96.6667 87.6667 99.0545 87.6667 102C87.6667 104.946 90.0545 107.333 93 107.333ZM148 117V116H122.209V117V118H148V117ZM122.209 117L122.992 116.377L118.02 110.127L117.237 110.75L116.455 111.373L121.426 117.623L122.209 117ZM117.237 110.75V109.75H99.2147V110.75V111.75H117.237V110.75ZM99.2147 110.75L100.03 110.171L93.8153 101.421L93 102L92.1847 102.579L98.3994 111.329L99.2147 110.75Z" fill="#20CF72" fill-opacity="0.7"/>
<path d="M104.093 120V121H104.586L104.886 120.609L104.093 120ZM84 125.333C86.9455 125.333 89.3333 122.946 89.3333 120C89.3333 117.054 86.9455 114.667 84 114.667C81.0545 114.667 78.6667 117.054 78.6667 120C78.6667 122.946 81.0545 125.333 84 125.333ZM111 111L110.207 110.391L103.3 119.391L104.093 120L104.886 120.609L111.793 111.609L111 111ZM104.093 120V119H84V120V121H104.093V120Z" fill="#20CF72" fill-opacity="0.7"/>
<path d="M109.848 132V133H110.325L110.625 132.629L109.848 132ZM98 137.333C100.946 137.333 103.333 134.946 103.333 132C103.333 129.054 100.946 126.667 98 126.667C95.0545 126.667 92.6667 129.054 92.6667 132C92.6667 134.946 95.0545 137.333 98 137.333ZM122 117L121.223 116.371L109.071 131.371L109.848 132L110.625 132.629L122.777 117.629L122 117ZM109.848 132V131H98V132V133H109.848V132Z" fill="#20CF72" fill-opacity="0.7"/>
<path d="M118.786 102L119.561 101.369L119.261 101H118.786V102ZM104 107.333C106.946 107.333 109.333 104.946 109.333 102C109.333 99.0545 106.946 96.6667 104 96.6667C101.054 96.6667 98.6667 99.0545 98.6667 102C98.6667 104.946 101.054 107.333 104 107.333ZM131 117L131.775 116.369L119.561 101.369L118.786 102L118.01 102.631L130.225 117.631L131 117ZM118.786 102V101H104V102V103H118.786V102Z" fill="#20CF72" fill-opacity="0.7"/>
<path d="M134.655 121V120H134.185L133.885 120.362L134.655 121ZM117.276 142V143H117.746L118.046 142.638L117.276 142ZM85 147.333C87.9455 147.333 90.3333 144.946 90.3333 142C90.3333 139.054 87.9455 136.667 85 136.667C82.0545 136.667 79.6667 139.054 79.6667 142C79.6667 144.946 82.0545 147.333 85 147.333ZM148 121V120H134.655V121V122H148V121ZM134.655 121L133.885 120.362L116.505 141.362L117.276 142L118.046 142.638L135.426 121.638L134.655 121ZM117.276 142V141H85V142V143H117.276V142Z" fill="#20CF72" fill-opacity="0.7"/>
<path d="M141.333 131V132H142.032L142.272 131.344L141.333 131ZM134 136.333C136.946 136.333 139.333 133.946 139.333 131C139.333 128.054 136.946 125.667 134 125.667C131.054 125.667 128.667 128.054 128.667 131C128.667 133.946 131.054 136.333 134 136.333ZM145 121L144.061 120.656L140.394 130.656L141.333 131L142.272 131.344L145.939 121.344L145 121ZM141.333 131V130H134V131V132H141.333V131Z" fill="#20CF72" fill-opacity="0.7"/>
<path d="M133.77 111L132.991 111.627L133.291 112H133.77V111ZM113.662 86L114.441 85.3733L114.141 85H113.662V86ZM105 91.3333C107.946 91.3333 110.333 88.9455 110.333 86C110.333 83.0545 107.946 80.6667 105 80.6667C102.054 80.6667 99.6667 83.0545 99.6667 86C99.6667 88.9455 102.054 91.3333 105 91.3333ZM148 111V110H133.77V111V112H148V111ZM133.77 111L134.549 110.373L114.441 85.3733L113.662 86L112.883 86.6267L132.991 111.627L133.77 111ZM113.662 86V85H105V86V87H113.662V86Z" fill="#20CF72" fill-opacity="0.7"/>
<path d="M95.7872 92L95.0247 92.6469L95.3242 93H95.7872V92ZM89 89.3333C91.9455 89.3333 94.3333 86.9455 94.3333 84C94.3333 81.0545 91.9455 78.6667 89 78.6667C86.0545 78.6667 83.6667 81.0545 83.6667 84C83.6667 86.9455 86.0545 89.3333 89 89.3333ZM118 92V91H95.7872V92V93H118V92ZM95.7872 92L96.5498 91.3531L89.7625 83.3531L89 84L88.2375 84.6469L95.0247 92.6469L95.7872 92Z" fill="#20CF72" fill-opacity="0.7"/>
<path d="M183 165.791L183.623 166.574L184 166.273V165.791H183ZM176.75 170.763L176.127 169.98L175.75 170.28V170.763H176.75ZM176.75 188.785L177.329 189.601L177.75 189.302V188.785H176.75ZM173.333 195C173.333 192.054 170.946 189.667 168 189.667C165.054 189.667 162.667 192.054 162.667 195C162.667 197.946 165.054 200.333 168 200.333C170.946 200.333 173.333 197.946 173.333 195ZM183 140H182V165.791H183H184V140H183ZM183 165.791L182.377 165.008L176.127 169.98L176.75 170.763L177.373 171.545L183.623 166.574L183 165.791ZM176.75 170.763H175.75V188.785H176.75H177.75V170.763H176.75ZM176.75 188.785L176.171 187.97L167.421 194.185L168 195L168.579 195.815L177.329 189.601L176.75 188.785Z" fill="#20CF72" fill-opacity="0.7"/>
<path d="M186 183.907H187V183.414L186.609 183.114L186 183.907ZM191.333 204C191.333 201.054 188.946 198.667 186 198.667C183.054 198.667 180.667 201.054 180.667 204C180.667 206.946 183.054 209.333 186 209.333C188.946 209.333 191.333 206.946 191.333 204ZM177 177L176.391 177.793L185.391 184.7L186 183.907L186.609 183.114L177.609 176.207L177 177ZM186 183.907H185V204H186H187V183.907H186Z" fill="#20CF72" fill-opacity="0.7"/>
<path d="M198 178.152H199V177.675L198.629 177.375L198 178.152ZM203.333 190C203.333 187.054 200.946 184.667 198 184.667C195.054 184.667 192.667 187.054 192.667 190C192.667 192.946 195.054 195.333 198 195.333C200.946 195.333 203.333 192.946 203.333 190ZM183 166L182.371 166.777L197.371 178.929L198 178.152L198.629 177.375L183.629 165.223L183 166ZM198 178.152H197V190H198H199V178.152H198Z" fill="#20CF72" fill-opacity="0.7"/>
<path d="M168 169.214L167.369 168.439L167 168.739V169.214H168ZM173.333 184C173.333 181.054 170.946 178.667 168 178.667C165.054 178.667 162.667 181.054 162.667 184C162.667 186.946 165.054 189.333 168 189.333C170.946 189.333 173.333 186.946 173.333 184ZM183 157L182.369 156.225L167.369 168.439L168 169.214L168.631 169.99L183.631 157.775L183 157ZM168 169.214H167V184H168H169V169.214H168Z" fill="#20CF72" fill-opacity="0.7"/>
<path d="M187 153.345H186V153.815L186.362 154.115L187 153.345ZM208 170.724H209V170.254L208.638 169.954L208 170.724ZM213.333 203C213.333 200.054 210.946 197.667 208 197.667C205.054 197.667 202.667 200.054 202.667 203C202.667 205.946 205.054 208.333 208 208.333C210.946 208.333 213.333 205.946 213.333 203ZM187 140H186V153.345H187H188V140H187ZM187 153.345L186.362 154.115L207.362 171.495L208 170.724L208.638 169.954L187.638 152.574L187 153.345ZM208 170.724H207V203H208H209V170.724H208Z" fill="#20CF72" fill-opacity="0.7"/>
<path d="M197 146.667H198V145.968L197.344 145.728L197 146.667ZM202.333 154C202.333 151.054 199.946 148.667 197 148.667C194.054 148.667 191.667 151.054 191.667 154C191.667 156.946 194.054 159.333 197 159.333C199.946 159.333 202.333 156.946 202.333 154ZM187 143L186.656 143.939L196.656 147.606L197 146.667L197.344 145.728L187.344 142.061L187 143ZM197 146.667H196V154H197H198V146.667H197Z" fill="#20CF72" fill-opacity="0.7"/>
<path d="M177 154.23L177.627 155.009L178 154.709V154.23H177ZM152 174.338L151.373 173.559L151 173.859V174.338H152ZM157.333 183C157.333 180.054 154.946 177.667 152 177.667C149.054 177.667 146.667 180.054 146.667 183C146.667 185.946 149.054 188.333 152 188.333C154.946 188.333 157.333 185.946 157.333 183ZM177 140H176V154.23H177H178V140H177ZM177 154.23L176.373 153.451L151.373 173.559L152 174.338L152.627 175.117L177.627 155.009L177 154.23ZM152 174.338H151V183H152H153V174.338H152Z" fill="#20CF72" fill-opacity="0.7"/>
<path d="M158 192.213L158.647 192.975L159 192.676V192.213H158ZM155.333 199C155.333 196.054 152.946 193.667 150 193.667C147.054 193.667 144.667 196.054 144.667 199C144.667 201.946 147.054 204.333 150 204.333C152.946 204.333 155.333 201.946 155.333 199ZM158 170H157V192.213H158H159V170H158ZM158 192.213L157.353 191.45L149.353 198.237L150 199L150.647 199.763L158.647 192.975L158 192.213Z" fill="#20CF72" fill-opacity="0.7"/>
<path d="M217 77.6552H216V77.1847L216.362 76.8848L217 77.6552ZM238 60.2759H239V60.7463L238.638 61.0463L238 60.2759ZM243.333 28C243.333 30.9455 240.946 33.3333 238 33.3333C235.054 33.3333 232.667 30.9455 232.667 28C232.667 25.0545 235.054 22.6667 238 22.6667C240.946 22.6667 243.333 25.0545 243.333 28ZM217 91H216V77.6552H217H218V91H217ZM217 77.6552L216.362 76.8848L237.362 59.5055L238 60.2759L238.638 61.0463L217.638 78.4256L217 77.6552ZM238 60.2759H237V28H238H239V60.2759H238Z" fill="#20CF72" fill-opacity="0.7"/>
<path d="M227 84.3333H228V85.0318L227.344 85.2722L227 84.3333ZM232.333 77C232.333 79.9455 229.946 82.3333 227 82.3333C224.054 82.3333 221.667 79.9455 221.667 77C221.667 74.0545 224.054 71.6667 227 71.6667C229.946 71.6667 232.333 74.0545 232.333 77ZM217 88L216.656 87.0611L226.656 83.3945L227 84.3333L227.344 85.2722L217.344 88.9389L217 88ZM227 84.3333H226V77H227H228V84.3333H227Z" fill="#20CF72" fill-opacity="0.7"/>
<path d="M220 137.345H219V137.815L219.362 138.115L220 137.345ZM241 154.724H242V154.254L241.638 153.954L241 154.724ZM246.333 187C246.333 184.054 243.946 181.667 241 181.667C238.054 181.667 235.667 184.054 235.667 187C235.667 189.946 238.054 192.333 241 192.333C243.946 192.333 246.333 189.946 246.333 187ZM220 124H219V137.345H220H221V124H220ZM220 137.345L219.362 138.115L240.362 155.495L241 154.724L241.638 153.954L220.638 136.574L220 137.345ZM241 154.724H240V187H241H242V154.724H241Z" fill="#20CF72" fill-opacity="0.7"/>
<path d="M230 130.667H231V129.968L230.344 129.728L230 130.667ZM235.333 138C235.333 135.054 232.946 132.667 230 132.667C227.054 132.667 224.667 135.054 224.667 138C224.667 140.946 227.054 143.333 230 143.333C232.946 143.333 235.333 140.946 235.333 138ZM220 127L219.656 127.939L229.656 131.606L230 130.667L230.344 129.728L220.344 126.061L220 127ZM230 130.667H229V138H230H231V130.667H230Z" fill="#20CF72" fill-opacity="0.7"/>
<path d="M248.803 108L249.587 107.378L249.287 107L248.804 107L248.803 108ZM253.77 114.254L252.987 114.876L253.287 115.254L253.769 115.254L253.77 114.254ZM271.793 114.269L272.608 113.691L272.31 113.269L271.793 113.269L271.793 114.269ZM278.004 117.691C275.059 117.688 272.669 120.074 272.667 123.02C272.664 125.965 275.05 128.355 277.995 128.358C280.941 128.36 283.331 125.974 283.333 123.029C283.336 120.083 280.95 117.693 278.004 117.691ZM223.012 107.978L223.012 108.978L248.803 109L248.803 108L248.804 107L223.013 106.978L223.012 107.978ZM248.803 108L248.02 108.622L252.987 114.876L253.77 114.254L254.553 113.632L249.587 107.378L248.803 108ZM253.77 114.254L253.769 115.254L271.792 115.269L271.793 114.269L271.793 113.269L253.771 113.254L253.77 114.254ZM271.793 114.269L270.977 114.847L277.184 123.603L278 123.024L278.816 122.446L272.608 113.691L271.793 114.269Z" fill="#20CF72" fill-opacity="0.7"/>
<path d="M266.922 105.015L266.923 104.015L266.43 104.015L266.129 104.406L266.922 105.015ZM287.019 99.6985C284.074 99.696 281.684 102.082 281.682 105.027C281.679 107.973 284.065 110.363 287.01 110.365C289.956 110.368 292.346 107.982 292.348 105.036C292.351 102.091 289.965 99.7009 287.019 99.6985ZM260.007 114.009L260.8 114.619L267.715 105.624L266.922 105.015L266.129 104.406L259.215 113.4L260.007 114.009ZM266.922 105.015L266.921 106.015L287.014 106.032L287.015 105.032L287.016 104.032L266.923 104.015L266.922 105.015Z" fill="#20CF72" fill-opacity="0.7"/>
<path d="M261.177 93.0102L261.178 92.0102L260.701 92.0098L260.401 92.38L261.177 93.0102ZM273.03 87.6867C270.084 87.6843 267.694 90.0701 267.692 93.0156C267.689 95.9611 270.075 98.3509 273.021 98.3534C275.966 98.3559 278.356 95.9701 278.358 93.0245C278.361 90.079 275.975 87.6892 273.03 87.6867ZM249.013 108L249.789 108.63L261.954 93.6403L261.177 93.0102L260.401 92.38L248.236 107.37L249.013 108ZM261.177 93.0102L261.176 94.0102L273.024 94.0201L273.025 93.0201L273.026 92.0201L261.178 92.0102L261.177 93.0102Z" fill="#20CF72" fill-opacity="0.7"/>
<path d="M254.791 76.2495L255.574 75.627L255.273 75.2495H254.791V76.2495ZM259.763 82.4995L258.98 83.122L259.28 83.4995H259.763V82.4995ZM277.785 82.4995L278.601 81.9205L278.302 81.4995H277.785V82.4995ZM284 85.9162C281.054 85.9162 278.667 88.304 278.667 91.2495C278.667 94.195 281.054 96.5828 284 96.5828C286.946 96.5828 289.333 94.195 289.333 91.2495C289.333 88.304 286.946 85.9162 284 85.9162ZM229 76.2495V77.2495H254.791V76.2495V75.2495H229V76.2495ZM254.791 76.2495L254.008 76.872L258.98 83.122L259.763 82.4995L260.545 81.877L255.574 75.627L254.791 76.2495ZM259.763 82.4995V83.4995H277.785V82.4995V81.4995H259.763V82.4995ZM277.785 82.4995L276.97 83.0786L283.185 91.8286L284 91.2495L284.815 90.6705L278.601 81.9205L277.785 82.4995Z" fill="#20CF72" fill-opacity="0.7"/>
<path d="M272.841 73V72H272.348L272.048 72.3912L272.841 73ZM292.934 67.6667C289.989 67.6667 287.601 70.0545 287.601 73C287.601 75.9455 289.989 78.3333 292.934 78.3333C295.88 78.3333 298.267 75.9455 298.267 73C298.267 70.0545 295.88 67.6667 292.934 67.6667ZM265.934 82L266.727 82.6088L273.634 73.6088L272.841 73L272.048 72.3912L265.141 81.3912L265.934 82ZM272.841 73V74H292.934V73V72H272.841V73Z" fill="#20CF72" fill-opacity="0.7"/>
<g clip-path="url(#clip6_19_220)">
<path fill-rule="evenodd" clip-rule="evenodd" d="M329.908 96.3267L329.694 96.2943C327.843 96.0146 326.3 95.7813 325.05 95.7609C323.73 95.7393 322.505 95.9453 321.425 96.7418C320.345 97.5382 319.786 98.648 319.417 99.915C319.166 100.775 318.815 102.871 318.534 104.67C314.347 104.177 311.773 104.285 309.772 105.76C306.994 107.809 306.407 111.693 305.233 119.462C304.059 127.23 303.472 131.115 305.52 133.893C307.569 136.671 311.453 137.258 319.222 138.432L327.462 139.677C335.23 140.851 339.115 141.438 341.893 139.389C344.671 137.341 345.258 133.456 346.432 125.688C347.606 117.919 348.193 114.035 346.144 111.257C344.668 109.256 342.241 108.392 338.096 107.626C338.358 105.824 338.642 103.719 338.657 102.823C338.679 101.503 338.473 100.278 337.676 99.1977C336.88 98.1176 335.77 97.5587 334.503 97.1894C333.303 96.8395 331.759 96.6064 329.908 96.3267ZM335.013 107.11C335.267 105.365 335.521 103.483 335.533 102.772C335.548 101.802 335.389 101.361 335.161 101.052C334.933 100.743 334.56 100.461 333.628 100.19C332.654 99.9054 331.32 99.7005 329.334 99.4004C327.349 99.1003 326.014 98.902 324.999 98.8855C324.029 98.8696 323.589 99.029 323.28 99.2569C322.971 99.4848 322.688 99.8582 322.417 100.789C322.218 101.473 321.904 103.345 321.632 105.088C322.438 105.206 323.294 105.335 324.203 105.473L332.443 106.718C333.351 106.855 334.207 106.984 335.013 107.11ZM327.311 112.79C328.164 112.919 328.751 113.715 328.622 114.569L328.619 114.59C330.777 115.494 332.386 117.546 332.016 119.998C331.887 120.851 331.091 121.438 330.238 121.309C329.384 121.18 328.797 120.384 328.926 119.531C329.046 118.74 328.334 117.51 326.636 117.253C324.939 116.997 323.896 117.961 323.776 118.752C323.657 119.544 324.368 120.773 326.066 121.03C328.919 121.461 331.432 123.863 330.978 126.864C330.608 129.316 328.463 130.801 326.135 131.027L326.132 131.048C326.003 131.901 325.207 132.488 324.354 132.36C323.5 132.231 322.913 131.434 323.042 130.581L323.045 130.56C320.888 129.656 319.278 127.604 319.649 125.152C319.778 124.299 320.574 123.712 321.427 123.841C322.28 123.969 322.867 124.766 322.738 125.619C322.619 126.41 323.33 127.64 325.028 127.896C326.726 128.153 327.769 127.188 327.888 126.397C328.008 125.606 327.297 124.376 325.599 124.12C322.746 123.689 320.233 121.287 320.686 118.285C321.057 115.833 323.201 114.349 325.529 114.123L325.533 114.102C325.661 113.248 326.458 112.661 327.311 112.79Z" fill="#20CF72" fill-opacity="0.68"/>
</g>
</g>
<defs>
<clipPath id="clip0_19_220">
<rect width="362" height="232" fill="white"/>
</clipPath>
<clipPath id="clip1_19_220">
<rect width="48" height="46" fill="white" transform="translate(55.5793 19) rotate(4.46274)"/>
</clipPath>
<clipPath id="clip2_19_220">
<rect width="48" height="47" fill="white" transform="translate(12 96.228) rotate(-5.05341)"/>
</clipPath>
<clipPath id="clip3_19_220">
<rect width="55.1559" height="56.3295" fill="white" transform="translate(56.7083 162) rotate(4.7947)"/>
</clipPath>
<clipPath id="clip4_19_220">
<rect width="47" height="46" fill="white" transform="translate(284 22.7252) rotate(-4.54604)"/>
</clipPath>
<clipPath id="clip5_19_220">
<rect width="62" height="63" fill="white" transform="translate(279.121 143) rotate(24.4948)"/>
</clipPath>
<clipPath id="clip6_19_220">
<rect width="50" height="50" fill="white" transform="translate(305.471 90) rotate(8.59358)"/>
</clipPath>
</defs>
</svg>
