<svg width="95" height="90" viewBox="0 0 95 90" fill="none" xmlns="http://www.w3.org/2000/svg">
<path d="M77.5 27.5C78.5609 27.5 79.5783 27.0786 80.3284 26.3284C81.0786 25.5783 81.5 24.5609 81.5 23.5C81.5 22.4391 81.0786 21.4217 80.3284 20.6716C79.5783 19.9214 78.5609 19.5 77.5 19.5C77.0307 19.5 76.5615 19.5 76.0922 19.5C73.8948 19.5 71.6974 19.5 69.5 19.5H67.8841L66.7216 20.6224C62.3358 24.857 57.95 29.0916 53.5642 33.3261C53.4542 33.4323 53.3932 33.5891 53.3811 33.7965C53.3438 34.4335 53.7677 35.5481 54.6527 37.1403C54.717 37.2546 54.7711 37.3564 54.8086 37.429C54.8473 37.5028 54.8734 37.5488 54.9101 37.5868C54.9468 37.6248 54.9919 37.6525 55.0642 37.6937C55.1355 37.7338 55.2353 37.7914 55.3473 37.8597C55.3473 37.8597 55.3473 37.8597 55.3473 37.8597C56.9075 38.8 58.0065 39.2627 58.6444 39.2478C58.8522 39.243 59.011 39.1875 59.1209 39.0813C63.5067 34.8468 67.8926 30.6122 72.2784 26.3776L69.5 27.5C71.6974 27.5 73.8948 27.5 76.0922 27.5C76.5615 27.5 77.0307 27.5 77.5 27.5Z" fill="#20CF72"/>
<path d="M28 4.5C28 3.43913 27.5786 2.42172 26.8284 1.67157C26.0783 0.921427 25.0609 0.5 24 0.5C22.9391 0.5 21.9217 0.921427 21.1716 1.67157C20.4214 2.42172 20 3.43913 20 4.5C20 5.23901 20 5.97803 20 6.71704C20 15.8114 20 24.9057 20 34V36.1891L21.8438 37.3691C25.388 39.6374 28.9322 41.9057 32.4764 44.174C32.9394 44.4703 33.4023 44.7665 33.8652 45.0628C34.0248 45.1649 34.8132 44.2844 36.2305 42.4211C36.312 42.3137 36.3806 42.2254 36.4285 42.1645C36.4773 42.1024 36.507 42.0638 36.534 42.0217C36.5609 41.9796 36.5835 41.9365 36.6195 41.8662C36.6547 41.7972 36.7061 41.6979 36.7695 41.5789C36.7695 41.5789 36.7695 41.5789 36.7695 41.5789C37.8678 39.5115 38.3372 38.4267 38.1777 38.3246C37.7147 38.0284 37.2518 37.7321 36.7889 37.4358C33.2446 35.1675 29.7004 32.8992 26.1562 30.6309L28 34C28 24.9057 28 15.8114 28 6.71704C28 5.97803 28 5.23901 28 4.5Z" fill="#20CF72"/>
<path d="M40 36C40.1313 36.0229 40.2424 36.0449 40.3201 36.0612C40.3992 36.0774 40.4488 36.0865 40.5 36.0865C40.5512 36.0865 40.6008 36.0774 40.6799 36.0612C40.7576 36.0449 40.8687 36.0229 41 36C41 36 41 36 41 36C43.3333 35.5839 44.5 35.1678 44.5 34.7517C44.5 34.7511 44.5 34.7506 44.5 34.75C44.5 27.25 44.5 19.75 44.5 12.25C44.5 11.8333 44.5 11.4167 44.5 11C44.5 9.93913 44.0786 8.92172 43.3284 8.17157C42.5783 7.42143 41.5609 7 40.5 7C39.4391 7 38.4217 7.42143 37.6716 8.17157C36.9214 8.92172 36.5 9.93913 36.5 11C36.5 11.4167 36.5 11.8333 36.5 12.25C36.5 19.75 36.5 27.25 36.5 34.75C36.5 34.7506 36.5 34.7511 36.5 34.7517C36.5 35.1678 37.6667 35.5839 40 36Z" fill="#20CF72"/>
<path d="M58.5 10C58.5 8.93913 58.0786 7.92172 57.3284 7.17157C56.5783 6.42143 55.5609 6 54.5 6C53.4391 6 52.4217 6.42143 51.6716 7.17157C50.9214 7.92172 50.5 8.93913 50.5 10C50.5 10.2953 50.5 10.5905 50.5 10.8858C50.5 11.7572 50.5 12.6286 50.5 13.5L52.0442 10.3426C50.5442 11.5093 49.0442 12.6759 47.5442 13.8426L50.2349 13.0069C47.6963 12.8576 45.1577 12.7082 42.6191 12.5589C42.3244 12.5416 42.0296 12.5242 41.7349 12.5069C40.6759 12.4446 39.6354 12.8056 38.8425 13.5104C38.0496 14.2152 37.5692 15.2061 37.5069 16.2651C37.4446 17.3241 37.8056 18.3646 38.5104 19.1575C39.2152 19.9504 40.2061 20.4308 41.2651 20.4931C41.2651 20.4931 41.2651 20.4931 41.2651 20.4931C41.5599 20.5104 41.8546 20.5278 42.1494 20.5451C44.6879 20.6944 47.2265 20.8438 49.7651 20.9931L51.2677 21.0815L52.4558 20.1574C53.9558 18.9907 55.4558 17.8241 56.9558 16.6574L58.5 15.4563V13.5C58.5 12.6286 58.5 11.7572 58.5 10.8858C58.5 10.5905 58.5 10.2953 58.5 10Z" fill="#20CF72"/>
<path d="M58.2746 50.1187C57.5104 49.3829 56.4852 48.9807 55.4245 49.0007C54.3639 49.0207 53.3546 49.4613 52.6187 50.2254C51.8829 50.9896 51.4807 52.0148 51.5007 53.0755C51.5207 54.1361 51.9613 55.1454 52.7254 55.8813C52.7254 55.8813 52.7254 55.8813 52.7254 55.8813C53.1845 56.3234 53.6436 56.7655 54.1027 57.2076C58.1436 61.0988 62.1845 64.99 66.2254 68.8813L65 66C65 71.8626 65 77.7253 65 83.5879C65 84.2253 65 84.8626 65 85.5C65 86.5609 65.4214 87.5783 66.1716 88.3284C66.9217 89.0786 67.9391 89.5 69 89.5C70.0609 89.5 71.0783 89.0786 71.8284 88.3284C72.5786 87.5783 73 86.5609 73 85.5C73 84.8626 73 84.2253 73 83.5879C73 77.7253 73 71.8626 73 66V64.2988L71.7746 63.1187C67.7337 59.2275 63.6928 55.3363 59.6519 51.445C59.1928 51.0029 58.7337 50.5608 58.2746 50.1187Z" fill="#20CF72"/>
<path d="M87.6816 43.9959C88.7414 43.9477 89.7386 43.4805 90.4539 42.6971C91.1693 41.9136 91.544 40.8781 91.4959 39.8184C91.4477 38.7586 90.9805 37.7614 90.1971 37.0461C89.4136 36.3307 88.3781 35.956 87.3184 36.0041C87.3184 36.0041 87.3184 36.0041 87.3184 36.0041C86.7056 36.032 86.0928 36.0598 85.4801 36.0877C82.4262 36.2265 79.3723 36.3653 76.3184 36.5041L72.7185 36.6678L72.5069 40.2651C72.3402 43.0984 72.1736 45.9318 72.0069 48.7651L71.9014 50.5583L73.1716 51.8284C75.0049 53.6618 76.8382 55.4951 78.6716 57.3284L79.8431 58.5H81.5C84.0533 58.5 86.6065 58.5 89.1598 58.5C89.7732 58.5 90.3866 58.5 91 58.5C92.0609 58.5 93.0783 58.0786 93.8284 57.3284C94.5786 56.5783 95 55.5609 95 54.5C95 53.4391 94.5786 52.4217 93.8284 51.6716C93.0783 50.9214 92.0609 50.5 91 50.5C90.3866 50.5 89.7732 50.5 89.1598 50.5C86.6065 50.5 84.0533 50.5 81.5 50.5L84.3284 51.6716C82.4951 49.8382 80.6618 48.0049 78.8284 46.1716L79.9931 49.2349C80.1598 46.4016 80.3264 43.5682 80.4931 40.7349L76.6816 44.4959C79.7355 44.3571 82.7894 44.2182 85.8433 44.0794C86.4561 44.0516 87.0689 44.0237 87.6816 43.9959Z" fill="#20CF72"/>
<path d="M36.5 82.5C36.5 83.5609 36.9214 84.5783 37.6716 85.3284C38.4217 86.0786 39.4391 86.5 40.5 86.5C41.5609 86.5 42.5783 86.0786 43.3284 85.3284C44.0786 84.5783 44.5 83.5609 44.5 82.5C44.5 82.3359 44.5 82.1718 44.5 82.0077C44.5 81.7861 44.5 81.5645 44.5 81.3429C44.5 79.7286 44.5 78.1143 44.5 76.5L43.3284 79.3284C45.1618 77.4951 46.9951 75.6618 48.8284 73.8284L46 75C47 75 48 75 49 75L46.1716 73.8284C47.3988 75.0557 48.6261 76.283 49.8534 77.5102C50.1261 77.783 50.3988 78.0557 50.6716 78.3284C51.4217 79.0786 52.4391 79.5 53.5 79.5C54.5609 79.5 55.5783 79.0786 56.3284 78.3284C57.0786 77.5783 57.5 76.5609 57.5 75.5C57.5 74.4391 57.0786 73.4217 56.3284 72.6716C56.3284 72.6716 56.3284 72.6716 56.3284 72.6716C56.0557 72.3988 55.783 72.1261 55.5102 71.8534C54.283 70.6261 53.0557 69.3988 51.8284 68.1716L50.6569 67H49C48 67 47 67 46 67H44.3431L43.1716 68.1716C41.3382 70.0049 39.5049 71.8382 37.6716 73.6716L36.5 74.8431V76.5C36.5 78.1143 36.5 79.7286 36.5 81.3429C36.5 81.5645 36.5 81.7861 36.5 82.0077C36.5 82.1718 36.5 82.3359 36.5 82.5Z" fill="#20CF72"/>
<path d="M4 51C2.93913 51 1.92172 51.4214 1.17157 52.1716C0.421427 52.9217 1.51029e-07 53.9391 1.51029e-07 55C1.51029e-07 56.0609 0.421427 57.0783 1.17157 57.8284C1.92172 58.5786 2.93913 59 4 59C4.73965 59 5.47929 59 6.21894 59C8.47929 59 10.7396 59 13 59H14.5559L15.7029 57.9486C17.7029 56.1153 19.7029 54.2819 21.7029 52.4486L23.3304 50.9567L22.9355 48.7845C22.6021 46.9511 22.2688 45.1178 21.9355 43.2845L21.6413 41.6663L20.2938 40.7231C18.6272 39.5564 16.9605 38.3897 15.2938 37.2231L13.5657 36.5402C12.399 36.3735 11.2324 36.2069 10.0657 36.0402L13.4965 39.8335C13.3607 36.5725 13.2248 33.3115 13.0889 30.0505C13.0581 29.3115 13.0273 28.5725 12.9965 27.8335C12.9524 26.7735 12.489 25.7745 11.7082 25.0563C10.9275 24.338 9.89342 23.9593 8.83348 24.0035C7.77353 24.0476 6.77454 24.511 6.05628 25.2918C5.33801 26.0725 4.9593 27.1066 5.00347 28.1665C5.00347 28.1665 5.00347 28.1665 5.00347 28.1665C5.03426 28.9055 5.06505 29.6445 5.09584 30.3835C5.23172 33.6445 5.36759 36.9055 5.50347 40.1665L5.64192 43.4895L8.93431 43.9598C10.101 44.1265 11.2676 44.2931 12.4343 44.4598L10.7062 43.7769C12.3728 44.9436 14.0395 46.1103 15.7062 47.2769L14.0645 44.7155C14.3979 46.5489 14.7312 48.3822 15.0645 50.2155L16.2971 46.5514C14.2971 48.3847 12.2971 50.2181 10.2971 52.0514L13 51C10.7396 51 8.47929 51 6.21894 51C5.47929 51 4.73965 51 4 51Z" fill="#20CF72"/>
<circle cx="71.5" cy="5.5" r="5" fill="#20CF72" stroke="#20CF72"/>
<path d="M48 30C56.2843 30 63 36.7157 63 45C63 53.2843 56.2843 60 48 60C39.7157 60 33 53.2843 33 45C33 36.7157 39.7157 30 48 30ZM47.5 37C43.3579 37 40 40.3579 40 44.5C40 48.6421 43.3579 52 47.5 52C51.6421 52 55 48.6421 55 44.5C55 40.3579 51.6421 37 47.5 37Z" fill="#20CF72"/>
<path d="M16.2067 70.6369C15.4474 71.3777 15.0134 72.3898 15.0003 73.4506C14.9872 74.5114 15.396 75.5339 16.1369 76.2933C16.8777 77.0526 17.8898 77.4866 18.9506 77.4997C20.0114 77.5128 21.0339 77.104 21.7933 76.3631C21.7933 76.3631 21.7933 76.3631 21.7933 76.3631C22.135 76.0298 22.4766 75.6965 22.8183 75.3631C28.9683 69.3631 35.1183 63.3631 41.2683 57.3631C41.5918 57.0475 41.9154 56.7318 42.2389 56.4162C42.257 56.3985 41.4605 55.5457 39.8492 53.8579C39.7557 53.76 39.6789 53.6793 39.6259 53.6235C39.5718 53.5666 39.5386 53.5318 39.5039 53.4962C39.4692 53.4607 39.4351 53.4266 39.3796 53.3711C39.3251 53.3167 39.2464 53.238 39.1508 53.1421C39.1508 53.1421 39.1508 53.1421 39.1508 53.1421C37.5033 51.4896 36.6704 50.6722 36.6523 50.6899C36.3288 51.0056 36.0052 51.3212 35.6817 51.6369C29.5317 57.6369 23.3817 63.6369 17.2317 69.6369C16.89 69.9702 16.5484 70.3035 16.2067 70.6369Z" fill="#20CF72"/>
</svg>
