<svg width="65" height="65" viewBox="0 0 65 65" fill="none" xmlns="http://www.w3.org/2000/svg">
<path fill-rule="evenodd" clip-rule="evenodd" d="M32.6409 3.38544H32.3592C29.9258 3.38536 27.8967 3.3853 26.2859 3.60186C24.5856 3.83047 23.0505 4.33333 21.817 5.56689C20.5834 6.80046 20.0805 8.33554 19.8519 10.0358C19.6967 11.1906 19.6527 13.9519 19.6403 16.3195C14.1634 16.4984 10.875 17.1378 8.58975 19.423C5.41675 22.5961 5.41675 27.703 5.41675 37.9167C5.41675 48.1304 5.41675 53.2375 8.58975 56.4103C11.7628 59.5834 16.8696 59.5834 27.0834 59.5834H37.9167C48.1304 59.5834 53.2375 59.5834 56.4103 56.4103C59.5834 53.2375 59.5834 48.1304 59.5834 37.9167C59.5834 27.703 59.5834 22.5961 56.4103 19.423C54.125 17.1378 50.8368 16.4984 45.3598 16.3195C45.3473 13.9519 45.3035 11.1906 45.1483 10.0358C44.9197 8.33554 44.4167 6.80046 43.1831 5.56689C41.9497 4.33333 40.4146 3.83047 38.7144 3.60186C37.1034 3.3853 35.0744 3.38536 32.6409 3.38544ZM41.2965 16.2551C41.2843 13.9621 41.2453 11.4944 41.1221 10.5771C40.9539 9.32733 40.6635 8.79247 40.3106 8.43952C39.9577 8.08657 39.4229 7.79618 38.173 7.62815C36.8648 7.45227 35.1109 7.44794 32.5001 7.44794C29.8892 7.44794 28.1353 7.45227 26.8272 7.62815C25.5774 7.79618 25.0425 8.08657 24.6896 8.43952C24.3366 8.79247 24.0462 9.32733 23.8782 10.5771C23.7549 11.4944 23.7159 13.9621 23.7036 16.2551C24.7637 16.25 25.8886 16.25 27.0834 16.25H37.9167C39.1117 16.25 40.2364 16.25 41.2965 16.2551ZM32.5001 25.0521C33.6219 25.0521 34.5313 25.9615 34.5313 27.0834V27.111C37.4802 27.8539 39.948 30.179 39.948 33.4027C39.948 34.5245 39.0385 35.434 37.9167 35.434C36.795 35.434 35.8855 34.5245 35.8855 33.4027C35.8855 32.3627 34.7323 30.9203 32.5001 30.9203C30.2679 30.9203 29.1147 32.3627 29.1147 33.4027C29.1147 34.443 30.2679 35.8854 32.5001 35.8854C36.2509 35.8854 39.948 38.4849 39.948 42.4307C39.948 45.6544 37.4802 47.9795 34.5313 48.7224V48.75C34.5313 49.8718 33.6219 50.7813 32.5001 50.7813C31.3783 50.7813 30.4688 49.8718 30.4688 48.75V48.7224C27.52 47.9795 25.0522 45.6544 25.0522 42.4307C25.0522 41.3089 25.9616 40.3994 27.0834 40.3994C28.2052 40.3994 29.1147 41.3089 29.1147 42.4307C29.1147 43.4707 30.2679 44.9131 32.5001 44.9131C34.7323 44.9131 35.8855 43.4707 35.8855 42.4307C35.8855 41.3904 34.7323 39.9479 32.5001 39.9479C28.7493 39.9479 25.0522 37.3488 25.0522 33.4027C25.0522 30.179 27.52 27.8539 30.4688 27.111V27.0834C30.4688 25.9615 31.3783 25.0521 32.5001 25.0521Z" fill="#191919"/>
</svg>
